<mxfile host="app.diagrams.net" modified="2023-08-06T14:09:15.235Z" agent="Mozilla/5.0 (Macintosh; Intel Mac OS X 10_15_7) AppleWebKit/605.1.15 (KHTML, like Gecko) Version/16.5 Safari/605.1.15" etag="am5ykYEa7uBFZqYC5el0" version="21.6.6" type="device">
  <diagram name="Page-1" id="2PMB4QtwVkkvJEtFJ5KF">
    <mxGraphModel dx="1811" dy="1836" grid="1" gridSize="10" guides="1" tooltips="1" connect="1" arrows="1" fold="1" page="1" pageScale="1" pageWidth="827" pageHeight="1169" math="0" shadow="0">
      <root>
        <mxCell id="0" />
        <mxCell id="1" parent="0" />
        <mxCell id="VordCCzc6NAOQtnxbt4K-1" value="Payment Data" style="strokeWidth=2;html=1;shape=mxgraph.flowchart.start_1;whiteSpace=wrap;" parent="1" vertex="1">
          <mxGeometry x="-220" y="65" width="100" height="60" as="geometry" />
        </mxCell>
        <mxCell id="VordCCzc6NAOQtnxbt4K-2" value="" style="endArrow=classic;html=1;rounded=0;" parent="1" edge="1">
          <mxGeometry width="50" height="50" relative="1" as="geometry">
            <mxPoint x="140" y="100" as="sourcePoint" />
            <mxPoint x="260" y="100" as="targetPoint" />
          </mxGeometry>
        </mxCell>
        <mxCell id="VordCCzc6NAOQtnxbt4K-3" value="" style="strokeWidth=2;html=1;shape=mxgraph.flowchart.database;whiteSpace=wrap;" parent="1" vertex="1">
          <mxGeometry x="540" y="70" width="60" height="60" as="geometry" />
        </mxCell>
        <mxCell id="VordCCzc6NAOQtnxbt4K-4" value="Payment Event" style="rounded=1;whiteSpace=wrap;html=1;absoluteArcSize=1;arcSize=14;strokeWidth=2;" parent="1" vertex="1">
          <mxGeometry x="260" y="75" width="100" height="50" as="geometry" />
        </mxCell>
        <mxCell id="VordCCzc6NAOQtnxbt4K-5" value="" style="endArrow=classic;html=1;rounded=0;entryX=0;entryY=0.5;entryDx=0;entryDy=0;entryPerimeter=0;" parent="1" target="VordCCzc6NAOQtnxbt4K-3" edge="1">
          <mxGeometry width="50" height="50" relative="1" as="geometry">
            <mxPoint x="360" y="100" as="sourcePoint" />
            <mxPoint x="410" y="50" as="targetPoint" />
          </mxGeometry>
        </mxCell>
        <mxCell id="VordCCzc6NAOQtnxbt4K-6" value="" style="endArrow=classic;html=1;rounded=0;entryX=0.5;entryY=0;entryDx=0;entryDy=0;" parent="1" target="VordCCzc6NAOQtnxbt4K-9" edge="1">
          <mxGeometry width="50" height="50" relative="1" as="geometry">
            <mxPoint x="310" y="125" as="sourcePoint" />
            <mxPoint x="310" y="220" as="targetPoint" />
          </mxGeometry>
        </mxCell>
        <mxCell id="VordCCzc6NAOQtnxbt4K-7" value="store the payment event" style="text;strokeColor=none;align=center;fillColor=none;html=1;verticalAlign=middle;whiteSpace=wrap;rounded=0;" parent="1" vertex="1">
          <mxGeometry x="414" y="60" width="60" height="30" as="geometry" />
        </mxCell>
        <mxCell id="VordCCzc6NAOQtnxbt4K-8" value="if Payment event stored in db" style="text;strokeColor=none;align=center;fillColor=none;html=1;verticalAlign=middle;whiteSpace=wrap;rounded=0;" parent="1" vertex="1">
          <mxGeometry x="310" y="150" width="60" height="30" as="geometry" />
        </mxCell>
        <mxCell id="VordCCzc6NAOQtnxbt4K-9" value="Payment PreProcess" style="rounded=1;whiteSpace=wrap;html=1;absoluteArcSize=1;arcSize=14;strokeWidth=2;" parent="1" vertex="1">
          <mxGeometry x="260" y="230" width="100" height="70" as="geometry" />
        </mxCell>
        <mxCell id="VordCCzc6NAOQtnxbt4K-10" value="" style="endArrow=classic;html=1;rounded=0;entryX=0.5;entryY=1;entryDx=0;entryDy=0;entryPerimeter=0;" parent="1" target="VordCCzc6NAOQtnxbt4K-3" edge="1">
          <mxGeometry width="50" height="50" relative="1" as="geometry">
            <mxPoint x="360" y="270" as="sourcePoint" />
            <mxPoint x="670" y="260" as="targetPoint" />
            <Array as="points">
              <mxPoint x="570" y="270" />
            </Array>
          </mxGeometry>
        </mxCell>
        <mxCell id="VordCCzc6NAOQtnxbt4K-11" value="to Store PreProcessed event" style="text;strokeColor=none;align=center;fillColor=none;html=1;verticalAlign=middle;whiteSpace=wrap;rounded=0;" parent="1" vertex="1">
          <mxGeometry x="430" y="230" width="60" height="30" as="geometry" />
        </mxCell>
        <mxCell id="VordCCzc6NAOQtnxbt4K-12" value="Registration event" style="rounded=1;whiteSpace=wrap;html=1;absoluteArcSize=1;arcSize=14;strokeWidth=2;" parent="1" vertex="1">
          <mxGeometry x="260" y="400" width="100" height="100" as="geometry" />
        </mxCell>
        <mxCell id="VordCCzc6NAOQtnxbt4K-13" value="" style="endArrow=classic;html=1;rounded=0;entryX=0.39;entryY=-0.04;entryDx=0;entryDy=0;entryPerimeter=0;" parent="1" edge="1">
          <mxGeometry width="50" height="50" relative="1" as="geometry">
            <mxPoint x="310" y="300" as="sourcePoint" />
            <mxPoint x="309" y="396" as="targetPoint" />
          </mxGeometry>
        </mxCell>
        <mxCell id="XIlDxuUzsq-zrp7c8PZ2-1" value="" style="endArrow=classic;html=1;rounded=0;" edge="1" parent="1">
          <mxGeometry width="50" height="50" relative="1" as="geometry">
            <mxPoint x="410" y="100" as="sourcePoint" />
            <mxPoint x="190" y="100" as="targetPoint" />
            <Array as="points">
              <mxPoint x="410" y="-10" />
              <mxPoint x="190" y="-10" />
            </Array>
          </mxGeometry>
        </mxCell>
        <mxCell id="XIlDxuUzsq-zrp7c8PZ2-2" value="Failed, store db event" style="text;strokeColor=none;align=center;fillColor=none;html=1;verticalAlign=middle;whiteSpace=wrap;rounded=0;" vertex="1" parent="1">
          <mxGeometry x="270" y="-50" width="60" height="30" as="geometry" />
        </mxCell>
        <mxCell id="XIlDxuUzsq-zrp7c8PZ2-3" value="" style="endArrow=classic;html=1;rounded=0;" edge="1" parent="1">
          <mxGeometry width="50" height="50" relative="1" as="geometry">
            <mxPoint x="260" y="270" as="sourcePoint" />
            <mxPoint x="210" y="100" as="targetPoint" />
            <Array as="points">
              <mxPoint x="210" y="270" />
            </Array>
          </mxGeometry>
        </mxCell>
        <mxCell id="XIlDxuUzsq-zrp7c8PZ2-4" value="Failed" style="text;strokeColor=none;align=center;fillColor=none;html=1;verticalAlign=middle;whiteSpace=wrap;rounded=0;" vertex="1" parent="1">
          <mxGeometry x="200" y="190" width="60" height="30" as="geometry" />
        </mxCell>
        <mxCell id="XIlDxuUzsq-zrp7c8PZ2-5" value="Success" style="text;strokeColor=none;align=center;fillColor=none;html=1;verticalAlign=middle;whiteSpace=wrap;rounded=0;" vertex="1" parent="1">
          <mxGeometry x="310" y="340" width="60" height="30" as="geometry" />
        </mxCell>
        <mxCell id="XIlDxuUzsq-zrp7c8PZ2-6" value="" style="endArrow=classic;html=1;rounded=0;" edge="1" parent="1">
          <mxGeometry width="50" height="50" relative="1" as="geometry">
            <mxPoint x="309" y="500" as="sourcePoint" />
            <mxPoint x="309" y="630" as="targetPoint" />
          </mxGeometry>
        </mxCell>
        <mxCell id="XIlDxuUzsq-zrp7c8PZ2-7" value="" style="endArrow=classic;html=1;rounded=0;entryX=0.833;entryY=1.05;entryDx=0;entryDy=0;entryPerimeter=0;" edge="1" parent="1" target="VordCCzc6NAOQtnxbt4K-3">
          <mxGeometry width="50" height="50" relative="1" as="geometry">
            <mxPoint x="360" y="450" as="sourcePoint" />
            <mxPoint x="670" y="380" as="targetPoint" />
            <Array as="points">
              <mxPoint x="590" y="450" />
            </Array>
          </mxGeometry>
        </mxCell>
        <mxCell id="XIlDxuUzsq-zrp7c8PZ2-8" value="Status" style="text;strokeColor=none;align=center;fillColor=none;html=1;verticalAlign=middle;whiteSpace=wrap;rounded=0;" vertex="1" parent="1">
          <mxGeometry x="530" y="430" width="60" height="30" as="geometry" />
        </mxCell>
        <mxCell id="XIlDxuUzsq-zrp7c8PZ2-9" value="External Source" style="strokeWidth=2;html=1;shape=mxgraph.flowchart.terminator;whiteSpace=wrap;" vertex="1" parent="1">
          <mxGeometry x="260" y="630" width="100" height="60" as="geometry" />
        </mxCell>
        <mxCell id="XIlDxuUzsq-zrp7c8PZ2-10" value="Event Queue" style="strokeWidth=2;html=1;shape=mxgraph.flowchart.direct_data;whiteSpace=wrap;" vertex="1" parent="1">
          <mxGeometry x="-10" y="60" width="120" height="55" as="geometry" />
        </mxCell>
        <mxCell id="XIlDxuUzsq-zrp7c8PZ2-11" value="" style="endArrow=classic;html=1;rounded=0;entryX=0;entryY=0.673;entryDx=0;entryDy=0;entryPerimeter=0;" edge="1" parent="1" target="XIlDxuUzsq-zrp7c8PZ2-10">
          <mxGeometry width="50" height="50" relative="1" as="geometry">
            <mxPoint x="-120" y="100" as="sourcePoint" />
            <mxPoint x="-70" y="50" as="targetPoint" />
          </mxGeometry>
        </mxCell>
      </root>
    </mxGraphModel>
  </diagram>
</mxfile>
